<svg width="126" height="22" viewBox="0 0 126 22" fill="none" xmlns="http://www.w3.org/2000/svg">
<path d="M6.608 21V4.48H0.112V1.4H16.744V4.48H10.248V21H6.608ZM27.5588 21V17.976L27.3628 17.332V12.04C27.3628 11.0133 27.0548 10.22 26.4388 9.66C25.8228 9.08133 24.8894 8.792 23.6388 8.792C22.7988 8.792 21.9681 8.92267 21.1468 9.184C20.3441 9.44533 19.6628 9.80933 19.1028 10.276L17.7308 7.728C18.5334 7.112 19.4854 6.65467 20.5868 6.356C21.7068 6.03867 22.8641 5.88 24.0588 5.88C26.2241 5.88 27.8948 6.40267 29.0708 7.448C30.2654 8.47467 30.8628 10.0707 30.8628 12.236V21H27.5588ZM22.8548 21.196C21.7348 21.196 20.7548 21.0093 19.9148 20.636C19.0748 20.244 18.4214 19.712 17.9548 19.04C17.5068 18.3493 17.2828 17.5747 17.2828 16.716C17.2828 15.876 17.4788 15.12 17.8708 14.448C18.2814 13.776 18.9441 13.244 19.8588 12.852C20.7734 12.46 21.9868 12.264 23.4988 12.264H27.8388V14.588H23.7508C22.5561 14.588 21.7534 14.784 21.3428 15.176C20.9321 15.5493 20.7268 16.016 20.7268 16.576C20.7268 17.2107 20.9788 17.7147 21.4828 18.088C21.9868 18.4613 22.6868 18.648 23.5828 18.648C24.4414 18.648 25.2068 18.452 25.8788 18.06C26.5694 17.668 27.0641 17.0893 27.3628 16.324L27.9508 18.424C27.6148 19.3013 27.0081 19.9827 26.1308 20.468C25.2721 20.9533 24.1801 21.196 22.8548 21.196ZM39.9746 21.196C38.7239 21.196 37.5199 21.0373 36.3626 20.72C35.2239 20.384 34.3186 19.9827 33.6466 19.516L34.9906 16.856C35.6626 17.2853 36.4653 17.64 37.3986 17.92C38.3319 18.2 39.2653 18.34 40.1986 18.34C41.2999 18.34 42.0933 18.1907 42.5786 17.892C43.0826 17.5933 43.3346 17.192 43.3346 16.688C43.3346 16.2773 43.1666 15.9693 42.8306 15.764C42.4946 15.54 42.0559 15.372 41.5146 15.26C40.9733 15.148 40.3666 15.0453 39.6946 14.952C39.0413 14.8587 38.3786 14.7373 37.7066 14.588C37.0533 14.42 36.4559 14.1867 35.9146 13.888C35.3733 13.5707 34.9346 13.1507 34.5986 12.628C34.2626 12.1053 34.0946 11.4147 34.0946 10.556C34.0946 9.604 34.3653 8.78267 34.9066 8.092C35.4479 7.38267 36.2039 6.84133 37.1746 6.468C38.1639 6.076 39.3306 5.88 40.6746 5.88C41.6826 5.88 42.6999 5.992 43.7266 6.216C44.7533 6.44 45.6026 6.75733 46.2746 7.168L44.9306 9.828C44.2213 9.39867 43.5026 9.10933 42.7746 8.96C42.0653 8.792 41.3559 8.708 40.6466 8.708C39.5826 8.708 38.7893 8.86667 38.2666 9.184C37.7626 9.50133 37.5106 9.90267 37.5106 10.388C37.5106 10.836 37.6786 11.172 38.0146 11.396C38.3506 11.62 38.7893 11.7973 39.3306 11.928C39.8719 12.0587 40.4693 12.1707 41.1226 12.264C41.7946 12.3387 42.4573 12.46 43.1106 12.628C43.7639 12.796 44.3613 13.0293 44.9026 13.328C45.4626 13.608 45.9106 14.0093 46.2466 14.532C46.5826 15.0547 46.7506 15.736 46.7506 16.576C46.7506 17.5093 46.4706 18.3213 45.9106 19.012C45.3693 19.7027 44.5946 20.244 43.5866 20.636C42.5786 21.0093 41.3746 21.196 39.9746 21.196ZM52.6208 17.668L52.7048 13.272L60.5168 6.048H64.7168L58.0808 12.712L56.2328 14.252L52.6208 17.668ZM49.7648 21V0.223999H53.2648V21H49.7648ZM61.0488 21L55.5888 14.252L57.8008 11.452L65.3048 21H61.0488ZM81.6775 1.4H85.3175V21H81.6775V1.4ZM71.5415 21H67.9015V1.4H71.5415V21ZM81.9575 12.6H71.2335V9.492H81.9575V12.6ZM96.5615 21.196C95.2922 21.196 94.1722 20.9627 93.2015 20.496C92.2308 20.0107 91.4748 19.2827 90.9335 18.312C90.3922 17.3227 90.1215 16.0813 90.1215 14.588V6.048H93.6215V14.112C93.6215 15.456 93.9202 16.464 94.5175 17.136C95.1335 17.7893 96.0015 18.116 97.1215 18.116C97.9428 18.116 98.6522 17.948 99.2495 17.612C99.8655 17.276 100.342 16.772 100.678 16.1C101.032 15.428 101.21 14.5973 101.21 13.608V6.048H104.71V21H101.378V16.968L101.966 18.2C101.462 19.1707 100.724 19.9173 99.7535 20.44C98.7828 20.944 97.7188 21.196 96.5615 21.196ZM117.58 21.196C116.311 21.196 115.181 20.916 114.192 20.356C113.203 19.796 112.419 18.956 111.84 17.836C111.28 16.6973 111 15.26 111 13.524C111 11.7693 111.289 10.332 111.868 9.212C112.465 8.092 113.259 7.26133 114.248 6.72C115.256 6.16 116.367 5.88 117.58 5.88C119.055 5.88 120.352 6.19733 121.472 6.832C122.611 7.46667 123.507 8.35333 124.16 9.492C124.832 10.6307 125.168 11.9747 125.168 13.524C125.168 15.0733 124.832 16.4173 124.16 17.556C123.507 18.6947 122.611 19.5907 121.472 20.244C120.352 20.8787 119.055 21.196 117.58 21.196ZM109.292 21V0.223999H112.792V9.52L112.512 13.496L112.624 17.472V21H109.292ZM117.188 18.2C118.028 18.2 118.775 18.0133 119.428 17.64C120.1 17.2667 120.632 16.7253 121.024 16.016C121.416 15.3067 121.612 14.476 121.612 13.524C121.612 12.5533 121.416 11.7227 121.024 11.032C120.632 10.3227 120.1 9.78133 119.428 9.408C118.775 9.03467 118.028 8.848 117.188 8.848C116.348 8.848 115.592 9.03467 114.92 9.408C114.248 9.78133 113.716 10.3227 113.324 11.032C112.932 11.7227 112.736 12.5533 112.736 13.524C112.736 14.476 112.932 15.3067 113.324 16.016C113.716 16.7253 114.248 17.2667 114.92 17.64C115.592 18.0133 116.348 18.2 117.188 18.2Z" fill="#293656"/>
</svg>
